<?xml version="1.0" encoding="UTF-8"?>
<svg id="Layer_2" data-name="Layer 2" xmlns="http://www.w3.org/2000/svg" viewBox="0 0 2880 781.93">
  <defs>
    <style>
      .cls-1 {
        fill: #2d2d2d;
      }
    </style>
  </defs>
  <g id="Layer_1" data-name="Layer 1">
    <g id="logo_design" data-name="logo design">
      <g id="logotype">
        <path class="cls-1" d="M1286.17,348.06c23.63-16.73,35.45-42.18,35.45-76.34,0-25.88-8.37-46.75-25.1-62.62-15.49-14.69-37.13-23.3-64.89-25.88,14.25-1.51,26.65-5.13,37.21-10.86,12.07-6.56,21.3-15.54,27.69-26.92,6.39-11.39,9.58-24.66,9.58-39.85,0-34.5-11.9-59.77-35.7-75.82-23.81-16.04-58.32-24.06-103.52-24.06h-140.26v367.47h158.37c43.82,0,77.55-8.36,101.19-25.1ZM1099.59,66.25h65.21c21.39,0,37.86,3.8,49.43,11.39,11.55,7.6,17.34,19.33,17.34,35.2,0,14.83-5.95,26.23-17.86,34.16-11.91,7.94-28.21,11.9-48.91,11.9h-65.21v-92.64ZM1099.59,312.61v-98.85h82.29c20.01,0,35.89,4.23,47.62,12.68,11.73,8.46,17.6,20.79,17.6,37.01s-5.95,28.47-17.86,36.74c-11.91,8.28-27.69,12.43-47.36,12.43h-82.29Z"/>
        <path class="cls-1" d="M1443.25,379.38c25.88,0,46.58-6.9,62.11-20.7,8.93-7.93,15.91-18.11,21.07-30.38l1.18,44.87h65.73V96.26h-71.94v157.86c0,22.08-4.66,38.81-13.98,50.2-9.32,11.39-22.43,17.08-39.33,17.08-14.84,0-25.88-5.17-33.13-15.53-7.24-10.35-10.87-26.56-10.87-48.65V96.26h-71.94v178.05c0,33.13,8.11,58.92,24.33,77.37,16.22,18.46,38.47,27.69,66.76,27.69Z"/>
        <rect class="cls-1" x="1633.2" y="96.26" width="71.94" height="276.9"/>
        <rect class="cls-1" x="1631.65" width="74.52" height="61.07"/>
        <rect class="cls-1" x="1746.54" y="5.69" width="71.94" height="367.47"/>
        <path class="cls-1" d="M2044.67,135.6c-7.25-14.5-18.12-25.7-32.61-33.65-14.49-7.93-31.58-11.9-51.24-11.9-23.12,0-43.22,5.87-60.29,17.59-17.09,11.74-30.28,28.47-39.59,50.21-9.32,21.74-13.98,47.28-13.98,76.6s4.58,55.3,13.72,76.86c9.14,21.57,22.26,38.29,39.34,50.2,17.08,11.91,37.35,17.86,60.81,17.86,19.32,0,36.57-4.14,51.76-12.43,15.18-8.28,26.56-19.84,34.16-34.68l1.55,40.89h68.83V5.69h-72.45v129.91ZM2037.68,282.59c-4.66,13.11-11.48,23.03-20.45,29.76-8.98,6.73-20.01,10.09-33.13,10.09-18.97,0-34.16-7.93-45.55-23.81-11.39-15.86-17.07-37.26-17.07-64.18s5.6-48.21,16.82-63.92c11.2-15.7,26.48-23.54,45.8-23.54,13.11,0,24.15,3.28,33.13,9.83,8.96,6.56,15.79,16.4,20.45,29.5,4.65,13.12,6.98,29.16,6.98,48.14s-2.33,35.02-6.98,48.14Z"/>
        <polygon class="cls-1" points="1026.62 775.71 1099.59 775.71 1099.59 627.17 1267.28 627.17 1267.28 565.07 1099.59 565.07 1099.59 470.87 1276.6 470.87 1276.6 408.24 1026.62 408.24 1026.62 775.71"/>
        <path class="cls-1" d="M1490.35,510.46c-20.71-11.9-44.86-17.85-72.46-17.85s-52.28,5.95-72.98,17.85c-20.7,11.91-36.83,28.65-48.39,50.21-11.56,21.57-17.34,47.02-17.34,76.34s5.78,54.86,17.34,76.6c11.56,21.73,27.69,38.55,48.39,50.46,20.7,11.91,45.03,17.86,72.98,17.86s51.75-5.95,72.46-17.86c20.7-11.91,36.83-28.73,48.4-50.46,11.55-21.74,17.33-47.27,17.33-76.6s-5.78-54.78-17.33-76.34c-11.57-21.56-27.69-38.3-48.4-50.21ZM1464.99,701.96c-11.04,15.35-26.74,23.03-47.1,23.03s-36.15-7.68-47.36-23.03c-11.22-15.35-16.82-37.01-16.82-64.96s5.6-48.65,16.82-64.18c11.2-15.53,26.99-23.29,47.36-23.29s36.05,7.76,47.1,23.29c11.04,15.52,16.56,36.92,16.56,64.18s-5.52,49.6-16.56,64.96Z"/>
        <path class="cls-1" d="M1749.13,656.68c0,22.08-4.66,38.81-13.98,50.2-9.32,11.39-22.43,17.08-39.33,17.08-14.84,0-25.88-5.17-33.13-15.53-7.24-10.35-10.87-26.56-10.87-48.65v-160.96h-71.94v178.04c0,33.13,8.11,58.92,24.33,77.37,16.22,18.46,38.47,27.69,66.76,27.69,25.88,0,46.58-6.9,62.11-20.7,8.93-7.93,15.91-18.11,21.07-30.38l1.18,44.87h65.73v-276.89h-71.94v157.86Z"/>
        <path class="cls-1" d="M2066.13,505.81c-13.98-8.8-31.14-13.2-51.5-13.2-14.84,0-28.55,2.77-41.14,8.28-12.6,5.52-23.21,14.33-31.83,26.4-3.67,5.13-6.77,11.02-9.38,17.59l-1.5-46.05h-65.21v276.89h71.94v-154.23c0-23.11,4.83-40.71,14.49-52.79,9.66-12.07,22.94-18.12,39.85-18.12,11.39,0,20.35,2.77,26.91,8.28,6.55,5.52,11.21,13.55,13.98,24.06,2.75,10.53,4.14,23.38,4.14,38.56v154.23h71.94v-178.04c0-21.05-3.62-39.42-10.87-55.12-7.25-15.7-17.86-27.95-31.84-36.75Z"/>
        <path class="cls-1" d="M2328.8,538.15c-7.24-14.5-18.11-25.7-32.6-33.64-14.5-7.94-31.58-11.91-51.25-11.91-23.12,0-43.21,5.87-60.29,17.6-17.08,11.73-30.28,28.47-39.59,50.2-9.32,21.74-13.98,47.28-13.98,76.6s4.57,55.3,13.72,76.86c9.14,21.57,22.25,38.29,39.34,50.2,17.07,11.91,37.34,17.86,60.81,17.86,19.32,0,36.57-4.14,51.76-12.43,15.18-8.28,26.57-19.84,34.16-34.68l1.55,40.89h68.84v-367.47h-72.46v129.91ZM2321.81,685.14c-4.65,13.11-11.48,23.03-20.45,29.76-8.97,6.72-20.01,10.09-33.12,10.09-18.98,0-34.16-7.93-45.54-23.81-11.39-15.86-17.08-37.26-17.08-64.18s5.61-48.21,16.82-63.92c11.21-15.7,26.48-23.54,45.8-23.54,13.11,0,24.15,3.29,33.12,9.83,8.97,6.56,15.8,16.39,20.45,29.5,4.65,13.12,6.98,29.16,6.98,48.14s-2.33,35.02-6.98,48.14Z"/>
        <path class="cls-1" d="M2632.34,510.46c-20.18-11.9-43.73-17.85-70.64-17.85s-51.6,6.04-71.95,18.11c-20.36,12.08-36.23,28.91-47.62,50.47-11.39,21.57-17.08,46.84-17.08,75.82s5.69,54.86,17.08,76.6c11.39,21.73,27.34,38.55,47.88,50.46,20.53,11.91,44.77,17.86,72.72,17.86,32.78,0,60.55-7.76,83.33-23.29,22.77-15.53,37.96-36.92,45.55-64.18l-73.49-4.66c-3.8,11.74-10.28,20.7-19.41,26.91-9.15,6.21-20.79,9.32-34.94,9.32-18.63,0-33.64-5.77-45.03-17.34-11.39-11.55-17.77-28.73-19.15-51.5h195.64v-15.53c0-31.05-5.43-57.7-16.31-79.96-10.87-22.25-26.39-39.33-46.58-51.24ZM2499.59,610.61c2.41-20.01,9.14-35.53,20.19-46.58,11.04-11.04,25-16.56,41.92-16.56s30.7,5.26,41.4,15.79c10.68,10.53,16.73,26.31,18.11,47.36h-121.63Z"/>
        <path class="cls-1" d="M2854.64,498.82c-20.01,0-35.71,6.13-47.1,18.37-8,8.6-14.29,20.92-18.88,36.92l-1.82-55.29h-67.81v276.89h71.94v-157.34c0-14.15,2.33-25.53,6.99-34.16,4.66-8.62,11.65-14.92,20.96-18.89,9.32-3.97,21.22-5.95,35.71-5.95h25.36v-60.55h-25.36Z"/>
      </g>
      <g id="logomark">
        <path id="logomark-2" data-name="logomark" class="cls-1" d="M844.8,527.12l-58.55-101.25c-17.57-30.24-50.01-49.03-85.14-49.03h-116.86c-12.64,0-24.91,2.47-36.28,6.98,9.71-7.61,18.08-17.07,24.46-28.06l58.55-101.48c17.32-30.25,17.32-67.82,0-98.07l-58.55-101.48c-6.59-11.47-15.37-20.98-25.37-28.79-.24-.24-.49-.24-.73-.49-6.1-4.63-12.68-8.54-19.76-11.47-.24,0-.49-.24-.73-.48-11.96-5.13-24.88-7.81-38.3-7.81h-117.1c-13.9,0-27.32,2.92-39.52,8.53h-.24c-6.1,2.93-12.2,6.1-17.57,10.49-.24.24-.73.49-.97.49-10.74,7.56-19.76,17.56-26.59,29.52l-58.55,101.48c-8.79,15.12-13.17,31.96-13.17,49.04s4.39,33.91,13.17,49.04l58.55,101.48c6.31,11.01,14.67,20.49,24.42,28.11-11.37-4.55-23.64-7.03-36.23-7.03h-117.1c-34.89,0-67.58,18.79-84.9,49.03l-58.55,101.25c-8.78,15.12-13.17,32.2-13.17,49.04s4.39,33.91,13.17,49.04l58.55,101.48c17.32,30.25,50.01,49.04,84.9,49.04h117.1c13.91,0,27.57-2.92,39.77-8.54.24,0,.73-.25.97-.49,6.34-2.69,12.2-6.34,17.57-10.49h.24c10.49-7.8,19.52-17.81,26.35-29.52l58.55-101.48c6-10.34,9.9-21.6,11.8-33.06,1.88,11.51,5.73,22.69,11.59,33.06l58.55,101.48c6.59,11.22,15.37,20.98,25.37,28.79.24.24.49.48.73.48,6.1,4.64,12.69,8.54,19.76,11.47.24.25.49.25.73.49,11.95,5.12,25.13,7.81,38.55,7.81h116.86c35.13,0,67.57-18.79,85.14-49.04l58.55-101.48c17.32-30.25,17.32-67.82,0-98.07ZM594.01,576.4c30.25,0,57.82,15.85,72.94,41.96l69.29,120.03c-10.49,5.85-22.45,9.27-35.13,9.27h-116.86c-25.13,0-48.3-13.42-60.75-34.88l-58.55-101.49c-6.34-10.98-9.27-22.69-9.27-34.88h138.32ZM380.44,205.25c30.01,0,57.82,16.1,72.7,41.96l69.28,120.03c-10.49,6.1-22.44,9.51-34.88,9.51h-117.1c-25.13,0-48.3-13.42-60.75-35.13l-58.55-101.49c-6.34-10.73-9.27-22.69-9.27-34.88h138.57ZM166.63,576.4c30.01,0,57.82,15.85,72.7,41.96l69.28,120.03c-10.49,5.85-22.45,9.27-34.89,9.27h-117.1c-24.88,0-48.31-13.42-60.75-34.88l-58.55-101.49c-6.34-10.98-9.27-22.69-9.27-34.88h138.57ZM428.98,560.24c-1.9-11.48-5.8-22.76-11.81-33.12l-58.55-101.25c-6.4-11.03-14.8-20.51-24.56-28.13,11.43,4.57,23.75,7.07,36.38,7.07h117.1c12.51,0,24.69-2.45,36-6.95-9.71,7.61-18.05,17.04-24.43,28.01l-58.55,101.25c-5.85,10.35-9.7,21.63-11.58,33.12Z"/>
        <g id="reg">
          <path class="cls-1" d="M62.64,131.19c-8.62,0-16.76-1.62-24.4-4.88-7.64-3.25-14.3-7.75-19.97-13.5-5.67-5.75-10.14-12.4-13.39-19.97-3.25-7.56-4.88-15.73-4.88-24.51s1.63-16.94,4.88-24.51c3.25-7.56,7.72-14.18,13.39-19.86,5.67-5.67,12.33-10.13,19.97-13.39,7.64-3.25,15.77-4.88,24.4-4.88s16.91,1.63,24.4,4.88c7.49,3.26,14.1,7.72,19.86,13.39,5.75,5.67,10.25,12.29,13.5,19.86,3.25,7.57,4.88,15.74,4.88,24.51s-1.63,16.95-4.88,24.51c-3.26,7.57-7.76,14.22-13.5,19.97-5.75,5.75-12.37,10.25-19.86,13.5-7.49,3.26-15.62,4.88-24.4,4.88ZM62.64,117.8c9.53,0,17.96-2.27,25.31-6.81,7.34-4.54,13.09-10.55,17.25-18.04,4.16-7.49,6.24-15.7,6.24-24.62s-2.08-17.1-6.24-24.51c-4.16-7.41-9.91-13.35-17.25-17.82-7.34-4.46-15.77-6.69-25.31-6.69s-17.97,2.23-25.31,6.69c-7.34,4.46-13.13,10.4-17.36,17.82-4.24,7.41-6.35,15.58-6.35,24.51s2.11,17.13,6.35,24.62c4.24,7.49,10.02,13.5,17.36,18.04,7.34,4.54,15.77,6.81,25.31,6.81ZM37.22,102.37V34.52h24.06c8.77,0,15.66,1.89,20.65,5.67,4.99,3.78,7.49,8.93,7.49,15.43,0,4.54-1.25,8.51-3.75,11.92-2.5,3.4-6.01,5.71-10.55,6.92l16.57,27.91h-15.89l-14.75-25.87h-9.31v25.87h-14.53ZM51.74,64.93h10.21c4.08,0,7.3-.83,9.64-2.5,2.35-1.66,3.52-4.01,3.52-7.04,0-2.87-1.17-5.07-3.52-6.58-2.35-1.51-5.56-2.27-9.64-2.27h-10.21v18.38Z"/>
        </g>
      </g>
    </g>
  </g>
</svg>