<?xml version="1.0" encoding="utf-8"?>
<!-- Generator: Adobe Illustrator 25.3.1, SVG Export Plug-In . SVG Version: 6.00 Build 0)  -->
<svg version="1.1" id="Livello_1" xmlns="http://www.w3.org/2000/svg" xmlns:xlink="http://www.w3.org/1999/xlink" x="0px" y="0px"
	 viewBox="0 0 1800 453.45" style="enable-background:new 0 0 1800 453.45;" xml:space="preserve">
<style type="text/css">
	.st0{fill:#12C896;}
	.st1{fill:#172349;}
</style>
<g>
	<path class="st0" d="M294.74,315.89c-17.43,27.23-62.52,35-123.88,35H53.75V137.56H10.6L92.07,33.93l81.62,103.63h-43.3v150.1
		c0,0,35.58,0,71.74,0s10.37-59.35-28.23-150.1c0,0,61.36,0,84.7,0C280.63,196.33,322.11,272.96,294.74,315.89z"/>
	<g>
		<path class="st1" d="M779.35,350.93v-8.76l8.47-25.42h-11.3c-7.35,18.93-23.73,37.01-56.22,37.01c-44.07,0-67.52-33.9-67.52-74.29
			c0-40.39,23.45-74.01,67.52-74.01c32.48,0,48.87,18.08,56.22,37.01h11.3l-8.47-25.43v-8.76h45.2v142.66H779.35z M738.67,244.99
			c-24.3,0-40.68,8.76-40.68,34.46c0,25.99,16.39,34.75,40.68,34.75c24.29,0,40.68-8.76,40.68-34.75
			C779.35,253.75,762.96,244.99,738.67,244.99z"/>
		<path class="st1" d="M1390.14,205.45c44.35,0,75.42,26.27,75.42,69.49v14.12h-108.19c0,16.39,11.86,27.97,37.57,27.97
			c15.82,0,27.68-5.65,30.51-16.39h45.2c-2.82,20.62-26.27,53.11-75.71,53.11c-54.8,0-79.95-35.59-79.95-75.99
			C1314.99,232.57,1345.78,205.45,1390.14,205.45z M1423.18,263.64c0-10.73-7.91-21.47-33.05-21.47
			c-25.14,0-32.77,10.73-32.77,21.47H1423.18z"/>
		<path class="st1" d="M1642.13,208.27l-36.16,142.66h-93.22l-36.44-142.66h44.63l32.77,131.36h11.3l32.49-131.36H1642.13z"/>
		<path class="st1" d="M1722.93,353.75c-52.54,0-75.14-21.19-75.14-54.52h45.2c0,11.02,7.63,20.62,31.35,20.62
			c12.15,0,19.78-2.83,19.78-9.61c0-7.34-7.91-9.32-30.79-16.95c-26.55-8.76-59.04-15.82-59.04-47.74
			c0-25.42,22.88-40.11,62.15-40.11c48.3,0,68.08,24.01,68.08,51.7h-45.2c0-10.17-7.63-17.8-23.16-17.8
			c-10.74,0-16.67,2.54-16.67,8.19c0,6.78,14.12,11.02,36.72,18.36c27.68,9.04,53.11,16.1,53.11,45.76
			C1789.32,335.67,1772.09,353.75,1722.93,353.75z"/>
		<polygon class="st1" points="1017.22,208.27 972.58,208.27 940.09,339.63 928.8,339.63 896.02,208.27 851.39,208.27 
			887.83,350.93 937.3,350.93 920.66,418.21 963.51,419.26 		"/>
		<path class="st1" d="M608.14,214.95c-0.91-2.29-2.49-6.16-4.39-10.87c-0.87-2.21-1.7-4.43-2.53-6.56c0,0-0.04,0-0.08,0
			c-1.34-3.28-2.77-6.8-4.19-10.35c-8.54-21.22-29.12-35.13-52-35.13h-91.01v198.89h84.21c44.14,0,76.54-5.57,89.07-25.17
			C644.3,299,624.15,253.99,608.14,214.95z M579.06,306.51c-2.73,4.03-8.1,8.81-18.41,8.81h-61.45V187.65h35.49
			c7.39,0,14.07,4.43,16.95,11.22l2.45,5.73c4.86,11.62,9.09,21.65,10.98,26.32C580.95,269.84,587.87,293.39,579.06,306.51z"/>
		<path class="st1" d="M1270.35,214.95c-0.91-2.29-2.49-6.16-4.39-10.87c-0.87-2.21-1.7-4.43-2.53-6.56c0,0-0.04,0-0.08,0
			c-1.34-3.28-2.77-6.8-4.19-10.35c-8.54-21.22-29.12-35.13-52-35.13h-91.01v198.89h84.21c44.14,0,76.54-5.57,89.07-25.17
			C1306.5,299,1286.35,253.99,1270.35,214.95z M1241.26,306.51c-2.73,4.03-8.1,8.81-18.41,8.81h-61.45V187.65h35.49
			c7.39,0,14.07,4.43,16.95,11.22l2.45,5.73c4.86,11.62,9.09,21.65,10.98,26.32C1243.16,269.84,1250.07,293.39,1241.26,306.51z"/>
	</g>
</g>
</svg>
